<svg width="56" height="56" viewBox="0 0 56 56" fill="none" xmlns="http://www.w3.org/2000/svg">
<circle cx="28" cy="28" r="28" fill="#FCB72B"/>
<path fill-rule="evenodd" clip-rule="evenodd" d="M31.3831 14H19.2562C17.9689 14.0016 16.9258 15.0448 16.9241 16.3321V39.653C16.9258 40.9403 17.9689 41.9834 19.2562 41.9851H30.9167V41.1507C30.9145 39.0496 31.5364 36.9946 32.704 35.2477C32.8276 35.0625 32.8027 34.8161 32.6457 34.659L29.3808 31.3941C29.079 31.092 28.919 30.6765 28.9401 30.2501C28.9613 29.8235 29.1618 29.4261 29.4918 29.1553C30.1274 28.6694 31.0263 28.7388 31.5799 29.3161L36.1839 33.9202L36.8434 33.2607L33.7152 30.1315V16.3321C33.7135 15.0448 32.6704 14.0016 31.3831 14ZM32.7823 29.1987L32.2394 28.6558C31.3446 27.7416 29.9055 27.6463 28.898 28.4349C28.3651 28.8729 28.0418 29.5159 28.0081 30.2051C27.9745 30.8942 28.2334 31.5655 28.7212 32.0536L31.7203 35.0528C30.6018 36.8552 30.002 38.9312 29.9871 41.0522H19.2562C18.4836 41.0522 17.857 40.4256 17.857 39.653V38.2537H29.5174V37.3209H17.857V17.7313H32.7823V29.1987ZM17.857 16.7985H32.7823V16.3321C32.7823 15.5595 32.1557 14.9328 31.3831 14.9328H19.2562C18.4836 14.9328 17.857 15.5595 17.857 16.3321V16.7985ZM35.0904 24.8503L34.4614 25.5378L37.3219 28.16C37.9953 28.7795 38.3791 29.6524 38.3794 30.5672V41.9851H39.3122V30.5672C39.311 29.3906 38.8176 28.2687 37.9512 27.4724L35.0904 24.8503ZM19.7226 22.3955H21.5883C22.1036 22.3955 22.5211 21.978 22.5211 21.4627V19.597C22.5211 19.0817 22.1036 18.6642 21.5883 18.6642H19.7226C19.2074 18.6642 18.7898 19.0817 18.7898 19.597V21.4627C18.7898 21.978 19.2074 22.3955 19.7226 22.3955ZM19.7226 19.597H21.5883V21.4627H19.7226V19.597ZM26.2525 22.3955H24.3868C23.8715 22.3955 23.454 21.978 23.454 21.4627V19.597C23.454 19.0817 23.8715 18.6642 24.3868 18.6642H26.2525C26.7678 18.6642 27.1853 19.0817 27.1853 19.597V21.4627C27.1853 21.978 26.7678 22.3955 26.2525 22.3955ZM26.2525 19.597H24.3868V21.4627H26.2525V19.597ZM29.051 22.3955H30.9167C31.4319 22.3955 31.8495 21.978 31.8495 21.4627V19.597C31.8495 19.0817 31.4319 18.6642 30.9167 18.6642H29.051C28.5357 18.6642 28.1182 19.0817 28.1182 19.597V21.4627C28.1182 21.978 28.5357 22.3955 29.051 22.3955ZM29.051 19.597H30.9167V21.4627H29.051V19.597ZM21.5883 27.0597H19.7226C19.2074 27.0597 18.7898 26.6421 18.7898 26.1269V24.2612C18.7898 23.7459 19.2074 23.3284 19.7226 23.3284H21.5883C22.1036 23.3284 22.5211 23.7459 22.5211 24.2612V26.1269C22.5211 26.6421 22.1036 27.0597 21.5883 27.0597ZM21.5883 24.2612H19.7226V26.1269H21.5883V24.2612ZM19.7226 31.7239H21.5883C22.1036 31.7239 22.5211 31.3063 22.5211 30.791V28.9254C22.5211 28.4101 22.1036 27.9925 21.5883 27.9925H19.7226C19.2074 27.9925 18.7898 28.4101 18.7898 28.9254V30.791C18.7898 31.3063 19.2074 31.7239 19.7226 31.7239ZM19.7226 28.9254H21.5883V30.791H19.7226V28.9254ZM26.2525 27.0597H24.3868C23.8715 27.0597 23.454 26.6421 23.454 26.1269V24.2612C23.454 23.7459 23.8715 23.3284 24.3868 23.3284H26.2525C26.7678 23.3284 27.1853 23.7459 27.1853 24.2612V26.1269C27.1853 26.6421 26.7678 27.0597 26.2525 27.0597ZM26.2525 24.2612H24.3868V26.1269H26.2525V24.2612ZM29.051 27.0597H30.9167C31.4319 27.0597 31.8495 26.6421 31.8495 26.1269V24.2612C31.8495 23.7459 31.4319 23.3284 30.9167 23.3284H29.051C28.5357 23.3284 28.1182 23.7459 28.1182 24.2612V26.1269C28.1182 26.6421 28.5357 27.0597 29.051 27.0597ZM29.051 24.2612H30.9167V26.1269H29.051V24.2612ZM26.2525 31.7239H24.3868C23.8715 31.7239 23.454 31.3063 23.454 30.791V28.9254C23.454 28.4101 23.8715 27.9925 24.3868 27.9925H26.2525C26.7678 27.9925 27.1853 28.4101 27.1853 28.9254V30.791C27.1853 31.3063 26.7678 31.7239 26.2525 31.7239ZM26.2525 28.9254H24.3868V30.791H26.2525V28.9254ZM19.7226 36.3881H21.5883C22.1036 36.3881 22.5211 35.9705 22.5211 35.4552V33.5896C22.5211 33.0743 22.1036 32.6567 21.5883 32.6567H19.7226C19.2074 32.6567 18.7898 33.0743 18.7898 33.5896V35.4552C18.7898 35.9705 19.2074 36.3881 19.7226 36.3881ZM19.7226 33.5896H21.5883V35.4552H19.7226V33.5896ZM26.2525 36.3881H24.3868C23.8715 36.3881 23.454 35.9705 23.454 35.4552V33.5896C23.454 33.0743 23.8715 32.6567 24.3868 32.6567H26.2525C26.7678 32.6567 27.1853 33.0743 27.1853 33.5896V35.4552C27.1853 35.9705 26.7678 36.3881 26.2525 36.3881ZM26.2525 33.5896H24.3868V35.4552H26.2525V33.5896ZM25.7861 39.1866H24.8532V40.1194H25.7861V39.1866Z" fill="#495567"/>
</svg>
