<svg width="56" height="56" viewBox="0 0 56 56" fill="none" xmlns="http://www.w3.org/2000/svg">
<circle cx="28" cy="28" r="28" fill="#FCB72B"/>
<path fill-rule="evenodd" clip-rule="evenodd" d="M37.4333 26.8334H38.5C38.7148 26.8334 38.8889 26.6593 38.8889 26.4445V23.3334C38.8889 23.1186 38.7148 22.9445 38.5 22.9445H34.8514L34.2222 21.686V20.2223C34.2222 20.0075 34.0481 19.8334 33.8333 19.8334H31.5C31.2852 19.8334 31.1111 20.0075 31.1111 20.2223V21.7778C31.1111 21.9926 31.2852 22.1667 31.5 22.1667H33.593L34.2222 23.4252V25.6667C34.2222 25.0224 33.6999 24.5 33.0555 24.5C32.4112 24.5 31.8889 25.0224 31.8889 25.6667V24.8889C31.8889 24.6742 31.7148 24.5 31.5 24.5H28.4367L27.2222 24.1963V17.8889C27.2222 17.0298 26.5258 16.3334 25.6667 16.3334H24.1111C23.252 16.3334 22.5556 17.0298 22.5556 17.8889V22.1667H20.6111C19.9668 22.1667 19.4444 22.689 19.4444 23.3334V24.5H16.7222C16.565 24.5001 16.4232 24.5948 16.363 24.7401C16.3028 24.8854 16.3361 25.0527 16.4473 25.1639L17.339 26.0556L16.4473 26.9473C16.3361 27.0585 16.3028 27.2258 16.363 27.3711C16.4232 27.5164 16.565 27.6111 16.7222 27.6112H20.6111C21.2554 27.6112 21.7778 27.0888 21.7778 26.4445V25.2778H22.5556V29.1667H21.3889C20.0369 29.1683 18.8909 30.1619 18.6978 31.5H17.5C17.2852 31.5 17.1111 31.6742 17.1111 31.8889V33.4445C17.1111 33.6593 17.2852 33.8334 17.5 33.8334H18.6667V34.6112H16.7222C16.5074 34.6112 16.3333 34.7853 16.3333 35V36.5556C16.3333 36.7704 16.5074 36.9445 16.7222 36.9445H21C21 38.4479 22.2188 39.6667 23.7222 39.6667C25.2257 39.6667 26.4444 38.4479 26.4444 36.9445H33.4444C33.4444 38.4479 34.6632 39.6667 36.1667 39.6667C37.6701 39.6667 38.8889 38.4479 38.8889 36.9445H39.2778C39.3963 36.9446 39.5085 36.8905 39.5823 36.7978C39.6561 36.705 39.6836 36.5836 39.6569 36.4681L37.4333 26.8334ZM31.8889 25.6667C31.8889 26.311 32.4112 26.8334 33.0555 26.8334C33.6999 26.8334 34.2222 26.311 34.2222 25.6667V33.8334H33.0555V33.4445C33.0555 32.8002 32.5332 32.2778 31.8889 32.2778V28C31.8889 27.7853 31.7148 27.6112 31.5 27.6112H27.2222V26.5538L28.2944 26.8217C28.3253 26.8295 28.357 26.8334 28.3889 26.8334H31.5C31.7148 26.8334 31.8889 26.6593 31.8889 26.4445V25.6667ZM33.4444 21.3889H31.8889V20.6112H33.4444V21.3889ZM18.6667 36.1667V35.3889H17.1111V36.1667H18.6667ZM18.6667 33.0556H17.8889V32.2778H18.6667V33.0556ZM38.1111 23.7223H37.3333V26.0556H38.1111V23.7223ZM35 23.7223H36.5555V26.0556H35V23.7223ZM32.2778 33.4445C32.2778 33.2297 32.1037 33.0556 31.8889 33.0556H30.3333V33.8334H32.2778V33.4445ZM28.2944 25.2662C28.3253 25.2739 28.357 25.2778 28.3889 25.2778H31.1111V26.0556H28.4367L25.6667 25.363V24.6093L28.2944 25.2662ZM24.1111 17.1112C23.6816 17.1112 23.3333 17.4594 23.3333 17.8889V19.4445H24.5V18.6667C24.5 18.4519 24.6741 18.2778 24.8889 18.2778H26.4444V17.8889C26.4444 17.4594 26.0962 17.1112 25.6667 17.1112H24.1111ZM24.8889 20.2223C25.1037 20.2223 25.2778 20.0482 25.2778 19.8334V19.0556H26.4444V19.9329L23.3333 20.8663V20.2223H24.8889ZM26.4444 22.5556V20.7449L23.3333 21.6783V22.5556H26.4444ZM26.4444 23.3334V24.0019L25.3723 23.7339C25.2561 23.7048 25.133 23.7309 25.0385 23.8046C24.9441 23.8783 24.8889 23.9914 24.8889 24.1112V25.6667C24.8889 25.8451 25.0102 26.0006 25.1833 26.0439L26.4444 26.3593V27.6112H23.3333V23.3334H26.4444ZM31.1111 32.2778V28.3889H23.3333V29.1667H29.9444C30.1592 29.1667 30.3333 29.3408 30.3333 29.5556V32.2778H31.1111ZM21 26.4445C21 26.6593 20.8259 26.8334 20.6111 26.8334H17.661L18.1638 26.3305C18.3156 26.1787 18.3156 25.9325 18.1638 25.7807L17.661 25.2778H21V26.4445ZM20.2222 23.3334V24.5H22.5556V22.9445H20.6111C20.3963 22.9445 20.2222 23.1186 20.2222 23.3334ZM23.7222 38.8889C22.6489 38.8876 21.7791 38.0178 21.7778 36.9445H22.5556C22.5556 37.5888 23.0779 38.1112 23.7222 38.1112C24.3665 38.1112 24.8889 37.5888 24.8889 36.9445H25.6667C25.6654 38.0178 24.7956 38.8876 23.7222 38.8889ZM23.7222 37.3334C23.937 37.3334 24.1111 37.1593 24.1111 36.9445H23.3333C23.3333 37.1593 23.5074 37.3334 23.7222 37.3334ZM26.4444 36.1667H21V32.2778C21 32.063 21.1741 31.8889 21.3889 31.8889H26.0555C26.2703 31.8889 26.4444 32.063 26.4444 32.2778V36.1667ZM27.2222 36.1667H28V31.8889C27.9987 30.8156 27.1289 29.9458 26.0556 29.9445H21.3889C20.3155 29.9458 19.4457 30.8156 19.4444 31.8889V36.1667H20.2222V32.2778C20.2222 31.6335 20.7446 31.1112 21.3889 31.1112H26.0556C26.6999 31.1112 27.2222 31.6335 27.2222 32.2778V36.1667ZM27.9572 29.9445H29.5556V33.8334H28.7778V31.8889C28.7779 31.1566 28.4819 30.4553 27.9572 29.9445ZM28.7778 34.6112V36.1667H34.2222V34.6112H28.7778ZM36.1667 38.8889C35.0933 38.8876 34.2235 38.0178 34.2222 36.9445H35C35 37.5888 35.5223 38.1112 36.1667 38.1112C36.811 38.1112 37.3333 37.5888 37.3333 36.9445H38.1111C38.1098 38.0178 37.24 38.8876 36.1667 38.8889ZM36.1667 37.3334C36.3814 37.3334 36.5556 37.1593 36.5556 36.9445H35.7778C35.7778 37.1593 35.9519 37.3334 36.1667 37.3334ZM35 36.1667V33.4445H35.7778V32.6667H35V26.8334H36.6333L38.787 36.1667H35ZM37.3333 32.6667H36.5555V33.4445H37.3333V32.6667ZM21.7778 32.6667H22.5556V33.4445H21.7778V32.6667ZM24.1111 32.6667H23.3333V33.4445H24.1111V32.6667ZM24.8889 32.6667H25.6667V33.4445H24.8889V32.6667ZM33.0555 25.2778C33.2703 25.2778 33.4444 25.4519 33.4444 25.6667C33.4444 25.8815 33.2703 26.0556 33.0555 26.0556C32.8408 26.0556 32.6667 25.8815 32.6667 25.6667C32.6667 25.4519 32.8408 25.2778 33.0555 25.2778ZM16.3333 19.0556H21.3889V19.8334H16.3333V19.0556ZM21.7778 20.6112H17.1111V21.3889H21.7778V20.6112Z" fill="#495567"/>
</svg>
