<svg width="172" height="172" viewBox="0 0 172 172" fill="none" xmlns="http://www.w3.org/2000/svg">
<mask id="mask0_3903_37" style="mask-type:alpha" maskUnits="userSpaceOnUse" x="0" y="0" width="172" height="172">
<path d="M172 86C172 133.496 133.496 172 86 172C38.5035 172 0 133.496 0 86C0 38.5035 38.5035 0 86 0C133.496 0 172 38.5035 172 86Z" fill="#D9D9D9"/>
</mask>
<g mask="url(#mask0_3903_37)">
<path d="M20 71C20 89.2254 14.8513 104 8.5 104C2.14873 104 -3 89.2254 -3 71C-3 52.7746 2.14873 38 8.5 38C14.8513 38 20 52.7746 20 71Z" fill="#495567"/>
<path d="M20 71C20 89.2254 14.8513 104 8.5 104C2.14873 104 -3 89.2254 -3 71C-3 52.7746 2.14873 38 8.5 38C14.8513 38 20 52.7746 20 71Z" fill="url(#paint0_linear_3903_37)" fill-opacity="0.2"/>
<path d="M44 28C44 39.0457 32.3594 48 18 48C3.6406 48 -8 39.0457 -8 28C-8 16.9543 3.6406 8 18 8C32.3594 8 44 16.9543 44 28Z" fill="#495567"/>
<path d="M44 28C44 39.0457 32.3594 48 18 48C3.6406 48 -8 39.0457 -8 28C-8 16.9543 3.6406 8 18 8C32.3594 8 44 16.9543 44 28Z" fill="url(#paint1_linear_3903_37)" fill-opacity="0.2"/>
<path d="M70 10.5C70 17.4036 61.9411 23 52 23C42.0589 23 34 17.4036 34 10.5C34 3.59644 42.0589 -2 52 -2C61.9411 -2 70 3.59644 70 10.5Z" fill="#495567"/>
<path d="M70 10.5C70 17.4036 61.9411 23 52 23C42.0589 23 34 17.4036 34 10.5C34 3.59644 42.0589 -2 52 -2C61.9411 -2 70 3.59644 70 10.5Z" fill="url(#paint2_linear_3903_37)" fill-opacity="0.2"/>
<path d="M111 3C111 7.97056 99.8071 12 86 12C72.1929 12 61 7.97056 61 3C61 -1.97056 72.1929 -6 86 -6C99.8071 -6 111 -1.97056 111 3Z" fill="#495567"/>
<path d="M111 3C111 7.97056 99.8071 12 86 12C72.1929 12 61 7.97056 61 3C61 -1.97056 72.1929 -6 86 -6C99.8071 -6 111 -1.97056 111 3Z" fill="url(#paint3_linear_3903_37)" fill-opacity="0.2"/>
<path d="M118 7C118 14.1797 114.866 20 111 20C107.134 20 104 14.1797 104 7C104 -0.179702 107.134 -6 111 -6C114.866 -6 118 -0.179702 118 7Z" fill="#495567"/>
<path d="M118 7C118 14.1797 114.866 20 111 20C107.134 20 104 14.1797 104 7C104 -0.179702 107.134 -6 111 -6C114.866 -6 118 -0.179702 118 7Z" fill="url(#paint4_linear_3903_37)" fill-opacity="0.2"/>
<path d="M149 20C149 31.598 139.822 41 128.5 41C117.178 41 108 31.598 108 20C108 8.40202 117.178 -1 128.5 -1C139.822 -1 149 8.40202 149 20Z" fill="#495567"/>
<path d="M149 20C149 31.598 139.822 41 128.5 41C117.178 41 108 31.598 108 20C108 8.40202 117.178 -1 128.5 -1C139.822 -1 149 8.40202 149 20Z" fill="url(#paint5_linear_3903_37)" fill-opacity="0.2"/>
<path d="M179 48.5C179 64.7924 168.703 78 156 78C143.297 78 133 64.7924 133 48.5C133 32.2076 143.297 19 156 19C168.703 19 179 32.2076 179 48.5Z" fill="#495567"/>
<path d="M179 48.5C179 64.7924 168.703 78 156 78C143.297 78 133 64.7924 133 48.5C133 32.2076 143.297 19 156 19C168.703 19 179 32.2076 179 48.5Z" fill="url(#paint6_linear_3903_37)" fill-opacity="0.2"/>
<path d="M179 78.5C179 82.6421 174.747 86 169.5 86C164.253 86 160 82.6421 160 78.5C160 74.3579 164.253 71 169.5 71C174.747 71 179 74.3579 179 78.5Z" fill="#495567"/>
<path d="M179 78.5C179 82.6421 174.747 86 169.5 86C164.253 86 160 82.6421 160 78.5C160 74.3579 164.253 71 169.5 71C174.747 71 179 74.3579 179 78.5Z" fill="url(#paint7_linear_3903_37)" fill-opacity="0.2"/>
<path d="M15 107C15 114.18 10.7467 120 5.5 120C0.253295 120 -4 114.18 -4 107C-4 99.8203 0.253295 94 5.5 94C10.7467 94 15 99.8203 15 107Z" fill="#495567"/>
<path d="M15 107C15 114.18 10.7467 120 5.5 120C0.253295 120 -4 114.18 -4 107C-4 99.8203 0.253295 94 5.5 94C10.7467 94 15 99.8203 15 107Z" fill="url(#paint8_linear_3903_37)" fill-opacity="0.2"/>
<path d="M24 134.5C24 146.926 19.7467 157 14.5 157C9.25329 157 5 146.926 5 134.5C5 122.074 9.25329 112 14.5 112C19.7467 112 24 122.074 24 134.5Z" fill="#495567"/>
<path d="M24 134.5C24 146.926 19.7467 157 14.5 157C9.25329 157 5 146.926 5 134.5C5 122.074 9.25329 112 14.5 112C19.7467 112 24 122.074 24 134.5Z" fill="url(#paint9_linear_3903_37)" fill-opacity="0.2"/>
<path d="M44 143C44 150.732 37.0604 157 28.5 157C19.9396 157 13 150.732 13 143C13 135.268 19.9396 129 28.5 129C37.0604 129 44 135.268 44 143Z" fill="#495567"/>
<path d="M44 143C44 150.732 37.0604 157 28.5 157C19.9396 157 13 150.732 13 143C13 135.268 19.9396 129 28.5 129C37.0604 129 44 135.268 44 143Z" fill="url(#paint10_linear_3903_37)" fill-opacity="0.2"/>
<path d="M52 160C52 168.284 48.6421 175 44.5 175C40.3579 175 37 168.284 37 160C37 151.716 40.3579 145 44.5 145C48.6421 145 52 151.716 52 160Z" fill="#495567"/>
<path d="M52 160C52 168.284 48.6421 175 44.5 175C40.3579 175 37 168.284 37 160C37 151.716 40.3579 145 44.5 145C48.6421 145 52 151.716 52 160Z" fill="url(#paint11_linear_3903_37)" fill-opacity="0.2"/>
<path d="M75 165C75 170.523 66.4934 175 56 175C45.5066 175 37 170.523 37 165C37 159.477 45.5066 155 56 155C66.4934 155 75 159.477 75 165Z" fill="#495567"/>
<path d="M75 165C75 170.523 66.4934 175 56 175C45.5066 175 37 170.523 37 165C37 159.477 45.5066 155 56 155C66.4934 155 75 159.477 75 165Z" fill="url(#paint12_linear_3903_37)" fill-opacity="0.2"/>
<path d="M86 171.5C86 178.956 82.6421 185 78.5 185C74.3579 185 71 178.956 71 171.5C71 164.044 74.3579 158 78.5 158C82.6421 158 86 164.044 86 171.5Z" fill="#495567"/>
<path d="M86 171.5C86 178.956 82.6421 185 78.5 185C74.3579 185 71 178.956 71 171.5C71 164.044 74.3579 158 78.5 158C82.6421 158 86 164.044 86 171.5Z" fill="url(#paint13_linear_3903_37)" fill-opacity="0.2"/>
<path d="M104 164.5C104 169.747 98.8513 174 92.5 174C86.1487 174 81 169.747 81 164.5C81 159.253 86.1487 155 92.5 155C98.8513 155 104 159.253 104 164.5Z" fill="#495567"/>
<path d="M104 164.5C104 169.747 98.8513 174 92.5 174C86.1487 174 81 169.747 81 164.5C81 159.253 86.1487 155 92.5 155C98.8513 155 104 159.253 104 164.5Z" fill="url(#paint14_linear_3903_37)" fill-opacity="0.2"/>
<path d="M140 166.5C140 173.956 130.822 180 119.5 180C108.178 180 99 173.956 99 166.5C99 159.044 108.178 153 119.5 153C130.822 153 140 159.044 140 166.5Z" fill="#495567"/>
<path d="M140 166.5C140 173.956 130.822 180 119.5 180C108.178 180 99 173.956 99 166.5C99 159.044 108.178 153 119.5 153C130.822 153 140 159.044 140 166.5Z" fill="url(#paint15_linear_3903_37)" fill-opacity="0.2"/>
<path d="M170 142C170 152.493 160.374 161 148.5 161C136.626 161 127 152.493 127 142C127 131.507 136.626 123 148.5 123C160.374 123 170 131.507 170 142Z" fill="#495567"/>
<path d="M170 142C170 152.493 160.374 161 148.5 161C136.626 161 127 152.493 127 142C127 131.507 136.626 123 148.5 123C160.374 123 170 131.507 170 142Z" fill="url(#paint16_linear_3903_37)" fill-opacity="0.2"/>
<path d="M170 123C170 129.075 164.627 134 158 134C151.373 134 146 129.075 146 123C146 116.925 151.373 112 158 112C164.627 112 170 116.925 170 123Z" fill="#495567"/>
<path d="M170 123C170 129.075 164.627 134 158 134C151.373 134 146 129.075 146 123C146 116.925 151.373 112 158 112C164.627 112 170 116.925 170 123Z" fill="url(#paint17_linear_3903_37)" fill-opacity="0.2"/>
<path d="M179 98C179 110.15 173.627 120 167 120C160.373 120 155 110.15 155 98C155 85.8497 160.373 76 167 76C173.627 76 179 85.8497 179 98Z" fill="#495567"/>
<path d="M179 98C179 110.15 173.627 120 167 120C160.373 120 155 110.15 155 98C155 85.8497 160.373 76 167 76C173.627 76 179 85.8497 179 98Z" fill="url(#paint18_linear_3903_37)" fill-opacity="0.2"/>
</g>
<path d="M117.439 62.4005L105.622 65.7632C104.878 63.783 103.782 61.8587 102.333 59.9906C100.921 58.085 98.9882 56.5157 96.5355 55.2827C94.0828 54.0497 90.9426 53.4332 87.1149 53.4332C81.875 53.4332 77.5084 54.6476 74.0152 57.0762C70.5591 59.4675 68.8311 62.5126 68.8311 66.2116C68.8311 69.4996 70.0203 72.0963 72.3986 74.0019C74.777 75.9074 78.4932 77.4954 83.5473 78.7657L96.2568 81.9043C103.912 83.7725 109.617 86.6308 113.37 90.4792C117.123 94.2903 119 99.2036 119 105.219C119 110.151 117.588 114.56 114.764 118.446C111.976 122.332 108.074 125.395 103.057 127.637C98.0405 129.879 92.2061 131 85.5541 131C76.8209 131 69.5929 129.094 63.8699 125.283C58.147 121.472 54.5236 115.905 53 108.582L65.4865 105.443C66.6757 110.076 68.924 113.551 72.2314 115.868C75.576 118.184 79.9426 119.343 85.3311 119.343C91.4628 119.343 96.3311 118.035 99.9358 115.419C103.578 112.767 105.399 109.591 105.399 105.892C105.399 102.903 104.358 100.399 102.277 98.3816C100.196 96.3266 97 94.7947 92.6892 93.7859L78.4189 90.4232C70.5777 88.555 64.8176 85.6593 61.1385 81.7361C57.4966 77.7756 55.6757 72.8249 55.6757 66.8841C55.6757 62.0269 57.0321 57.7301 59.7449 53.9937C62.4949 50.2573 66.2297 47.3243 70.9493 45.1946C75.7061 43.0649 81.0946 42 87.1149 42C95.5878 42 102.24 43.8682 107.071 47.6045C111.939 51.3409 115.395 56.2729 117.439 62.4005Z" fill="url(#paint19_linear_3903_37)"/>
<path fill-rule="evenodd" clip-rule="evenodd" d="M121.278 64.4273L103.784 69.4052L102.813 66.8174C102.187 65.1503 101.249 63.4873 99.9624 61.8295L99.9422 61.8033L99.9225 61.7768C98.8307 60.3036 97.2875 59.0185 95.188 57.9631C93.285 57.0064 90.6483 56.4332 87.1149 56.4332C82.3439 56.4332 78.6122 57.534 75.7277 59.5394L75.7222 59.5432C72.9479 61.4628 71.8311 63.6433 71.8311 66.2116C71.8311 68.6714 72.6686 70.374 74.2744 71.6606C76.1576 73.1694 79.384 74.6255 84.2731 75.8549C84.2749 75.8553 84.2768 75.8558 84.2786 75.8562L96.968 78.9898C96.9692 78.9901 96.9705 78.9904 96.9717 78.9907C104.929 80.933 111.224 83.9857 115.512 88.3787C119.886 92.8222 122 98.5251 122 105.219C122 110.764 120.399 115.792 117.195 120.203C114.055 124.577 109.706 127.952 104.281 130.376C98.8071 132.822 92.5409 134 85.5541 134C76.3885 134 68.5403 131.998 62.2071 127.78C55.7674 123.492 51.7316 117.213 50.0629 109.193L49.4764 106.374L67.6502 101.806L68.3923 104.697C69.4372 108.768 71.3332 111.574 73.9465 113.406C76.6491 115.276 80.3619 116.343 85.3311 116.343C91.0605 116.343 95.2387 115.119 98.1699 112.994C101.226 110.768 102.399 108.418 102.399 105.892C102.399 103.686 101.667 101.969 100.189 100.536L100.179 100.526L100.169 100.516C98.6339 99.0003 96.0346 97.6498 92.0056 96.707L92.0011 96.7059L77.7236 93.3415C69.578 91.4008 63.1853 88.3044 58.9502 83.7883L58.9402 83.7776L58.9302 83.7668C54.7245 79.1931 52.6757 73.4922 52.6757 66.8841C52.6757 61.4287 54.2124 56.5075 57.3173 52.2311L57.323 52.2232L57.3288 52.2154C60.4185 48.0175 64.5818 44.7766 69.7154 42.4601L69.7234 42.4565C74.9211 40.1293 80.7372 39 87.1149 39C95.9969 39 103.376 40.9561 108.902 45.228C114.268 49.3481 118.063 54.789 120.285 61.4512L121.278 64.4273ZM107.071 47.6045C102.24 43.8682 95.5878 42 87.1149 42C81.0946 42 75.7061 43.0649 70.9493 45.1946C66.2297 47.3243 62.4949 50.2573 59.7449 53.9937C57.0321 57.7301 55.6757 62.0269 55.6757 66.8841C55.6757 72.8249 57.4966 77.7756 61.1385 81.7361C64.8176 85.6593 70.5777 88.555 78.4189 90.4232L92.6892 93.7859C97 94.7947 100.196 96.3266 102.277 98.3816C104.358 100.399 105.399 102.903 105.399 105.892C105.399 109.591 103.578 112.767 99.9358 115.419C96.3311 118.035 91.4628 119.343 85.3311 119.343C79.9426 119.343 75.576 118.184 72.2314 115.868C68.924 113.551 66.6757 110.076 65.4865 105.443L53 108.582C53.1901 109.496 53.4129 110.382 53.6685 111.241C53.693 111.324 53.7179 111.406 53.7431 111.488C55.5542 117.395 58.9298 121.994 63.8699 125.283C69.5929 129.094 76.8209 131 85.5541 131C92.2061 131 98.0405 129.879 103.057 127.637C108.074 125.395 111.976 122.332 114.764 118.446C117.588 114.56 119 110.151 119 105.219C119 99.2036 117.123 94.2903 113.37 90.4792C109.617 86.6308 103.912 83.7725 96.2568 81.9043L83.5473 78.7657C78.4932 77.4954 74.777 75.9074 72.3986 74.0019C70.0203 72.0963 68.8311 69.4996 68.8311 66.2116C68.8311 62.5126 70.5591 59.4675 74.0152 57.0762C77.5084 54.6476 81.875 53.4332 87.1149 53.4332C90.9426 53.4332 94.0828 54.0497 96.5355 55.2827C98.9882 56.5157 100.921 58.085 102.333 59.9906C103.782 61.8587 104.878 63.7829 105.622 65.7632L117.439 62.4005C117.116 61.4329 116.758 60.495 116.365 59.587C114.269 54.745 111.17 50.7509 107.071 47.6045Z" fill="#495567"/>
<defs>
<linearGradient id="paint0_linear_3903_37" x1="8.5" y1="38" x2="8.5" y2="104" gradientUnits="userSpaceOnUse">
<stop stop-opacity="0"/>
<stop offset="1"/>
</linearGradient>
<linearGradient id="paint1_linear_3903_37" x1="18" y1="8" x2="18" y2="48" gradientUnits="userSpaceOnUse">
<stop stop-opacity="0"/>
<stop offset="1"/>
</linearGradient>
<linearGradient id="paint2_linear_3903_37" x1="52" y1="-2" x2="52" y2="23" gradientUnits="userSpaceOnUse">
<stop stop-opacity="0"/>
<stop offset="1"/>
</linearGradient>
<linearGradient id="paint3_linear_3903_37" x1="86" y1="-6" x2="86" y2="12" gradientUnits="userSpaceOnUse">
<stop stop-opacity="0"/>
<stop offset="1"/>
</linearGradient>
<linearGradient id="paint4_linear_3903_37" x1="111" y1="-6" x2="111" y2="20" gradientUnits="userSpaceOnUse">
<stop stop-opacity="0"/>
<stop offset="1"/>
</linearGradient>
<linearGradient id="paint5_linear_3903_37" x1="128.5" y1="-1" x2="128.5" y2="41" gradientUnits="userSpaceOnUse">
<stop stop-opacity="0"/>
<stop offset="1"/>
</linearGradient>
<linearGradient id="paint6_linear_3903_37" x1="156" y1="19" x2="156" y2="78" gradientUnits="userSpaceOnUse">
<stop stop-opacity="0"/>
<stop offset="1"/>
</linearGradient>
<linearGradient id="paint7_linear_3903_37" x1="169.5" y1="71" x2="169.5" y2="86" gradientUnits="userSpaceOnUse">
<stop stop-opacity="0"/>
<stop offset="1"/>
</linearGradient>
<linearGradient id="paint8_linear_3903_37" x1="5.5" y1="94" x2="5.5" y2="120" gradientUnits="userSpaceOnUse">
<stop stop-opacity="0"/>
<stop offset="1"/>
</linearGradient>
<linearGradient id="paint9_linear_3903_37" x1="14.5" y1="112" x2="14.5" y2="157" gradientUnits="userSpaceOnUse">
<stop stop-opacity="0"/>
<stop offset="1"/>
</linearGradient>
<linearGradient id="paint10_linear_3903_37" x1="28.5" y1="129" x2="28.5" y2="157" gradientUnits="userSpaceOnUse">
<stop stop-opacity="0"/>
<stop offset="1"/>
</linearGradient>
<linearGradient id="paint11_linear_3903_37" x1="44.5" y1="145" x2="44.5" y2="175" gradientUnits="userSpaceOnUse">
<stop stop-opacity="0"/>
<stop offset="1"/>
</linearGradient>
<linearGradient id="paint12_linear_3903_37" x1="56" y1="155" x2="56" y2="175" gradientUnits="userSpaceOnUse">
<stop stop-opacity="0"/>
<stop offset="1"/>
</linearGradient>
<linearGradient id="paint13_linear_3903_37" x1="78.5" y1="158" x2="78.5" y2="185" gradientUnits="userSpaceOnUse">
<stop stop-opacity="0"/>
<stop offset="1"/>
</linearGradient>
<linearGradient id="paint14_linear_3903_37" x1="92.5" y1="155" x2="92.5" y2="174" gradientUnits="userSpaceOnUse">
<stop stop-opacity="0"/>
<stop offset="1"/>
</linearGradient>
<linearGradient id="paint15_linear_3903_37" x1="119.5" y1="153" x2="119.5" y2="180" gradientUnits="userSpaceOnUse">
<stop stop-opacity="0"/>
<stop offset="1"/>
</linearGradient>
<linearGradient id="paint16_linear_3903_37" x1="148.5" y1="123" x2="148.5" y2="161" gradientUnits="userSpaceOnUse">
<stop stop-opacity="0"/>
<stop offset="1"/>
</linearGradient>
<linearGradient id="paint17_linear_3903_37" x1="158" y1="112" x2="158" y2="134" gradientUnits="userSpaceOnUse">
<stop stop-opacity="0"/>
<stop offset="1"/>
</linearGradient>
<linearGradient id="paint18_linear_3903_37" x1="167" y1="76" x2="167" y2="120" gradientUnits="userSpaceOnUse">
<stop stop-opacity="0"/>
<stop offset="1"/>
</linearGradient>
<linearGradient id="paint19_linear_3903_37" x1="86" y1="42" x2="86" y2="131" gradientUnits="userSpaceOnUse">
<stop offset="0.43" stop-color="#FCB72B"/>
<stop offset="1" stop-color="#966D1A"/>
</linearGradient>
</defs>
</svg>
