<svg width="131" height="40" viewBox="0 0 131 40" fill="none" xmlns="http://www.w3.org/2000/svg">
<rect x="0.428589" width="130" height="40" rx="4" fill="#E5ECF4"/>
<path fill-rule="evenodd" clip-rule="evenodd" d="M42.9429 30.5357C42.6191 30.7881 42.1333 30.9143 41.4857 30.9143C41.0286 30.9143 40.6 30.8286 40.2 30.6571C39.8 30.4857 39.4524 30.2309 39.1572 29.8929C38.8619 29.5548 38.6286 29.1357 38.4572 28.6357C38.2857 28.1357 38.2 27.5524 38.2 26.8857V24.5429C38.2 23.8952 38.2929 23.3214 38.4786 22.8214C38.6643 22.3214 38.9214 21.9 39.25 21.5571C39.5786 21.2143 39.9714 20.9548 40.4286 20.7786C40.8857 20.6024 41.3905 20.5143 41.9429 20.5143C42.5143 20.5143 43.0238 20.6071 43.4714 20.7929C43.9191 20.9786 44.3 21.2357 44.6143 21.5643C44.9286 21.8929 45.1667 22.2786 45.3286 22.7214C45.4905 23.1643 45.5714 23.6381 45.5714 24.1429V24.3143H43.6857V24.1429C43.6857 23.5429 43.531 23.0881 43.2214 22.7786C42.9119 22.469 42.4762 22.3143 41.9143 22.3143C41.381 22.3143 40.9429 22.4929 40.6 22.85C40.2572 23.2071 40.0857 23.819 40.0857 24.6857V26.8C40.0857 28.3429 40.7143 29.1143 41.9714 29.1143C42.5333 29.1143 42.9595 28.9643 43.25 28.6643C43.5405 28.3643 43.6857 27.9619 43.6857 27.4571H41.2857V25.6571H45.5714V30.7143H43.8572V29.6H43.6C43.4857 29.9714 43.2667 30.2833 42.9429 30.5357ZM51.4408 30.6714C50.998 30.8333 50.5337 30.9143 50.048 30.9143C49.5623 30.9143 49.098 30.8333 48.6551 30.6714C48.2123 30.5095 47.8194 30.2738 47.4765 29.9643C47.1337 29.6548 46.8623 29.2738 46.6623 28.8214C46.4623 28.369 46.3623 27.8476 46.3623 27.2571V27.0857C46.3623 26.5048 46.4623 25.9881 46.6623 25.5357C46.8623 25.0833 47.1337 24.7 47.4765 24.3857C47.8194 24.0714 48.2123 23.8333 48.6551 23.6714C49.098 23.5095 49.5623 23.4286 50.048 23.4286C50.5337 23.4286 50.998 23.5095 51.4408 23.6714C51.8837 23.8333 52.2765 24.0714 52.6194 24.3857C52.9623 24.7 53.2337 25.0833 53.4337 25.5357C53.6337 25.9881 53.7337 26.5048 53.7337 27.0857V27.2571C53.7337 27.8476 53.6337 28.369 53.4337 28.8214C53.2337 29.2738 52.9623 29.6548 52.6194 29.9643C52.2765 30.2738 51.8837 30.5095 51.4408 30.6714ZM50.048 29.2C49.7908 29.2 49.548 29.1571 49.3194 29.0714C49.0908 28.9857 48.8908 28.8619 48.7194 28.7C48.548 28.5381 48.4123 28.3405 48.3123 28.1071C48.2123 27.8738 48.1623 27.6095 48.1623 27.3143V27.0286C48.1623 26.7333 48.2123 26.469 48.3123 26.2357C48.4123 26.0024 48.548 25.8048 48.7194 25.6429C48.8908 25.4809 49.0908 25.3571 49.3194 25.2714C49.548 25.1857 49.7908 25.1429 50.048 25.1429C50.3051 25.1429 50.548 25.1857 50.7765 25.2714C51.0051 25.3571 51.2051 25.4809 51.3765 25.6429C51.548 25.8048 51.6837 26.0024 51.7837 26.2357C51.8837 26.469 51.9337 26.7333 51.9337 27.0286V27.3143C51.9337 27.6095 51.8837 27.8738 51.7837 28.1071C51.6837 28.3405 51.548 28.5381 51.3765 28.7C51.2051 28.8619 51.0051 28.9857 50.7765 29.0714C50.548 29.1571 50.3051 29.2 50.048 29.2ZM59.5459 30.6714C59.1031 30.8333 58.6388 30.9143 58.1531 30.9143C57.6674 30.9143 57.2031 30.8333 56.7602 30.6714C56.3174 30.5095 55.9245 30.2738 55.5816 29.9643C55.2388 29.6548 54.9674 29.2738 54.7674 28.8214C54.5674 28.369 54.4674 27.8476 54.4674 27.2571V27.0857C54.4674 26.5048 54.5674 25.9881 54.7674 25.5357C54.9674 25.0833 55.2388 24.7 55.5816 24.3857C55.9245 24.0714 56.3174 23.8333 56.7602 23.6714C57.2031 23.5095 57.6674 23.4286 58.1531 23.4286C58.6388 23.4286 59.1031 23.5095 59.5459 23.6714C59.9888 23.8333 60.3816 24.0714 60.7245 24.3857C61.0674 24.7 61.3388 25.0833 61.5388 25.5357C61.7388 25.9881 61.8388 26.5048 61.8388 27.0857V27.2571C61.8388 27.8476 61.7388 28.369 61.5388 28.8214C61.3388 29.2738 61.0674 29.6548 60.7245 29.9643C60.3816 30.2738 59.9888 30.5095 59.5459 30.6714ZM58.1531 29.2C57.8959 29.2 57.6531 29.1571 57.4245 29.0714C57.1959 28.9857 56.9959 28.8619 56.8245 28.7C56.6531 28.5381 56.5174 28.3405 56.4174 28.1071C56.3174 27.8738 56.2674 27.6095 56.2674 27.3143V27.0286C56.2674 26.7333 56.3174 26.469 56.4174 26.2357C56.5174 26.0024 56.6531 25.8048 56.8245 25.6429C56.9959 25.4809 57.1959 25.3571 57.4245 25.2714C57.6531 25.1857 57.8959 25.1429 58.1531 25.1429C58.4102 25.1429 58.6531 25.1857 58.8816 25.2714C59.1102 25.3571 59.3102 25.4809 59.4816 25.6429C59.6531 25.8048 59.7888 26.0024 59.8888 26.2357C59.9888 26.469 60.0388 26.7333 60.0388 27.0286V27.3143C60.0388 27.6095 59.9888 27.8738 59.8888 28.1071C59.7888 28.3405 59.6531 28.5381 59.4816 28.7C59.3102 28.8619 59.1102 28.9857 58.8816 29.0714C58.6531 29.1571 58.4102 29.2 58.1531 29.2ZM69.551 33.2571C69.3463 33.4667 69.082 33.5714 68.7582 33.5714H63.9867V31.8571H67.6725C67.9296 31.8571 68.0582 31.7143 68.0582 31.4286V29.6857H67.801C67.7248 29.8476 67.632 30.0024 67.5225 30.15C67.4129 30.2976 67.2701 30.4286 67.0939 30.5429C66.9177 30.6571 66.7082 30.7476 66.4653 30.8143C66.2225 30.8809 65.9296 30.9143 65.5867 30.9143C65.1487 30.9143 64.7415 30.8357 64.3653 30.6786C63.9891 30.5214 63.6606 30.2881 63.3796 29.9786C63.0987 29.669 62.8796 29.2905 62.7225 28.8429C62.5653 28.3952 62.4867 27.8809 62.4867 27.3V27.0429C62.4867 26.4714 62.5701 25.9619 62.7367 25.5143C62.9034 25.0667 63.132 24.6881 63.4225 24.3786C63.7129 24.069 64.051 23.8333 64.4367 23.6714C64.8225 23.5095 65.2296 23.4286 65.6582 23.4286C66.2296 23.4286 66.682 23.5357 67.0153 23.75C67.3487 23.9643 67.6106 24.2667 67.801 24.6571H68.0582V23.6286H69.8582V32.4571C69.8582 32.7809 69.7558 33.0476 69.551 33.2571ZM66.1725 29.2C65.6106 29.2 65.1558 29.0262 64.8082 28.6786C64.4606 28.3309 64.2867 27.8571 64.2867 27.2571V27.0857C64.2867 26.4857 64.4606 26.0119 64.8082 25.6643C65.1558 25.3167 65.6106 25.1429 66.1725 25.1429C66.7344 25.1429 67.1891 25.3214 67.5367 25.6786C67.8844 26.0357 68.0582 26.5048 68.0582 27.0857V27.2571C68.0582 27.8381 67.8844 28.3071 67.5367 28.6643C67.1891 29.0214 66.7344 29.2 66.1725 29.2ZM77.6633 29V30.7143H71.0633V29H73.549V22.4286H71.149V20.7143H75.349V29H77.6633ZM82.5398 30.9143C83.0065 30.9143 83.4136 30.8619 83.7612 30.7571C84.1089 30.6524 84.4041 30.519 84.6469 30.3571C84.8898 30.1952 85.0874 30.0167 85.2398 29.8214C85.3922 29.6262 85.5112 29.4381 85.597 29.2571L84.0541 28.4C83.9493 28.619 83.7779 28.8071 83.5398 28.9643C83.3017 29.1214 82.9589 29.2 82.5112 29.2C82.2827 29.2 82.066 29.1643 81.8612 29.0929C81.6565 29.0214 81.4755 28.9214 81.3184 28.7929C81.1612 28.6643 81.0374 28.5119 80.9469 28.3357C80.8565 28.1595 80.8065 27.9667 80.797 27.7571H85.997V26.8C85.997 26.4286 85.9303 26.0452 85.797 25.65C85.6636 25.2548 85.4541 24.8929 85.1684 24.5643C84.8827 24.2357 84.5208 23.9643 84.0827 23.75C83.6446 23.5357 83.1208 23.4286 82.5112 23.4286C82.016 23.4286 81.5517 23.5167 81.1184 23.6929C80.685 23.869 80.3065 24.1143 79.9827 24.4286C79.6589 24.7429 79.4041 25.1238 79.2184 25.5714C79.0327 26.019 78.9398 26.5143 78.9398 27.0571V27.1429C78.9398 27.7333 79.0279 28.2619 79.2041 28.7286C79.3803 29.1952 79.6279 29.5905 79.9469 29.9143C80.266 30.2381 80.6446 30.4857 81.0827 30.6571C81.5208 30.8286 82.0065 30.9143 82.5398 30.9143ZM80.8255 26.2143H84.1684C84.1112 25.8809 83.9327 25.6048 83.6327 25.3857C83.3327 25.1667 82.9541 25.0571 82.497 25.0571C82.0398 25.0571 81.6684 25.1738 81.3827 25.4071C81.097 25.6405 80.9112 25.9095 80.8255 26.2143ZM89.1163 30.7143V26.9429H91.1449C91.6592 26.9429 92.1068 26.8571 92.4878 26.6857C92.8687 26.5143 93.1854 26.2881 93.4378 26.0071C93.6901 25.7262 93.8806 25.4071 94.0092 25.05C94.1378 24.6929 94.2021 24.3286 94.2021 23.9571V23.6143C94.2021 23.2524 94.1378 22.8976 94.0092 22.55C93.8806 22.2024 93.6901 21.8929 93.4378 21.6214C93.1854 21.35 92.8687 21.1309 92.4878 20.9643C92.1068 20.7976 91.6592 20.7143 91.1449 20.7143H87.2306V30.7143H89.1163ZM89.1163 25.1429H90.9592C91.3782 25.1429 91.7092 25.0286 91.9521 24.8C92.1949 24.5714 92.3163 24.2762 92.3163 23.9143V23.7429C92.3163 23.3809 92.1949 23.0857 91.9521 22.8571C91.7092 22.6286 91.3782 22.5143 90.9592 22.5143H89.1163V25.1429ZM101.979 30.7143V29H99.6643V20.7143H95.4643V22.4286H97.8643V29H95.3786V30.7143H101.979ZM107.312 30.6357C106.969 30.8214 106.569 30.9143 106.112 30.9143C105.684 30.9143 105.281 30.8333 104.905 30.6714C104.529 30.5095 104.198 30.2714 103.912 29.9571C103.627 29.6429 103.4 29.2619 103.234 28.8143C103.067 28.3667 102.984 27.8571 102.984 27.2857V27.0571C102.984 26.4952 103.065 25.9905 103.227 25.5429C103.388 25.0952 103.607 24.7143 103.884 24.4C104.16 24.0857 104.481 23.8452 104.848 23.6786C105.215 23.5119 105.607 23.4286 106.027 23.4286C106.531 23.4286 106.938 23.5143 107.248 23.6857C107.557 23.8571 107.803 24.1238 107.984 24.4857H108.241V23.6286H110.041V28.5714C110.041 28.8571 110.169 29 110.427 29H110.698V30.7143H109.469C109.146 30.7143 108.881 30.619 108.677 30.4286C108.472 30.2381 108.369 29.9905 108.369 29.6857H108.112C107.922 30.1333 107.655 30.45 107.312 30.6357ZM106.512 29.2C105.988 29.2 105.569 29.0262 105.255 28.6786C104.941 28.3309 104.784 27.8571 104.784 27.2571V27.0857C104.784 26.4857 104.941 26.0119 105.255 25.6643C105.569 25.3167 105.988 25.1429 106.512 25.1429C107.036 25.1429 107.455 25.3167 107.769 25.6643C108.084 26.0119 108.241 26.4857 108.241 27.0857V27.2571C108.241 27.8571 108.084 28.3309 107.769 28.6786C107.455 29.0262 107.036 29.2 106.512 29.2ZM117.924 33.2571C117.72 33.4667 117.455 33.5714 117.132 33.5714H112.917V31.8571H116.046C116.303 31.8571 116.432 31.7143 116.432 31.4286V29.6857H116.174C115.86 30.5048 115.184 30.9143 114.146 30.9143C113.794 30.9143 113.465 30.8571 113.16 30.7429C112.855 30.6286 112.589 30.4524 112.36 30.2143C112.132 29.9762 111.953 29.6786 111.825 29.3214C111.696 28.9643 111.632 28.5429 111.632 28.0571V23.6286H113.432V27.6857C113.432 28.1905 113.551 28.5833 113.789 28.8643C114.027 29.1452 114.384 29.2857 114.86 29.2857C115.403 29.2857 115.801 29.1119 116.053 28.7643C116.305 28.4167 116.432 27.9429 116.432 27.3429V23.6286H118.232V32.4571C118.232 32.7809 118.129 33.0476 117.924 33.2571Z" fill="#495567"/>
<path fill-rule="evenodd" clip-rule="evenodd" d="M56.0459 9.65707C56.1364 9.65707 56.2233 9.63921 56.3067 9.6035C56.39 9.56778 56.4626 9.52016 56.5245 9.46064C56.5864 9.40112 56.6352 9.32969 56.6709 9.24636C56.7067 9.16302 56.7245 9.07374 56.7245 8.9785C56.7245 8.88326 56.7067 8.79397 56.6709 8.71064C56.6352 8.62731 56.5864 8.55588 56.5245 8.49636C56.4626 8.43683 56.39 8.38921 56.3067 8.3535C56.2233 8.31778 56.1364 8.29993 56.0459 8.29993C55.9507 8.29993 55.8626 8.31778 55.7817 8.3535C55.7007 8.38921 55.6293 8.43683 55.5674 8.49636C55.5055 8.55588 55.4567 8.62731 55.4209 8.71064C55.3852 8.79397 55.3674 8.88326 55.3674 8.9785C55.3674 9.07374 55.3852 9.16302 55.4209 9.24636C55.4567 9.32969 55.5055 9.40112 55.5674 9.46064C55.6293 9.52016 55.7007 9.56778 55.7817 9.6035C55.8626 9.63921 55.9507 9.65707 56.0459 9.65707ZM40.2572 13.4821C40.0953 13.6083 39.8524 13.6714 39.5286 13.6714C39.3 13.6714 39.0857 13.6285 38.8857 13.5428C38.6857 13.4571 38.5119 13.3297 38.3643 13.1606C38.2167 12.9916 38.1 12.7821 38.0143 12.5321C37.9286 12.2821 37.8857 11.9904 37.8857 11.6571V10.4856C37.8857 10.1618 37.9322 9.87493 38.025 9.62493C38.1179 9.37493 38.2465 9.16421 38.4107 8.99278C38.575 8.82136 38.7715 8.69159 39 8.6035C39.2286 8.5154 39.481 8.47136 39.7572 8.47136C40.0429 8.47136 40.2976 8.51778 40.5215 8.61064C40.7453 8.7035 40.9357 8.83207 41.0929 8.99636C41.25 9.16064 41.3691 9.3535 41.45 9.57493C41.531 9.79636 41.5715 10.0333 41.5715 10.2856V10.3714H40.6286V10.2856C40.6286 9.98564 40.5512 9.75826 40.3965 9.6035C40.2417 9.44874 40.0238 9.37136 39.7429 9.37136C39.4762 9.37136 39.2572 9.46064 39.0857 9.63921C38.9143 9.81778 38.8286 10.1237 38.8286 10.5571V11.6142C38.8286 12.3856 39.1429 12.7714 39.7715 12.7714C40.0524 12.7714 40.2655 12.6964 40.4107 12.5464C40.556 12.3964 40.6286 12.1952 40.6286 11.9428H39.4286V11.0428H41.5715V13.5714H40.7143V13.0142H40.5857C40.5286 13.1999 40.4191 13.3559 40.2572 13.4821ZM44.4562 13.5928C44.2823 13.6452 44.0788 13.6714 43.8454 13.6714C43.5788 13.6714 43.3359 13.6285 43.1169 13.5428C42.8978 13.4571 42.7085 13.3333 42.549 13.1714C42.3895 13.0095 42.2657 12.8118 42.1776 12.5785C42.0895 12.3452 42.0454 12.0809 42.0454 11.7856V11.7428C42.0454 11.4714 42.0919 11.2237 42.1847 10.9999C42.2776 10.7761 42.405 10.5856 42.5669 10.4285C42.7288 10.2714 42.9181 10.1487 43.1347 10.0606C43.3514 9.97255 43.5835 9.9285 43.8312 9.9285C44.1359 9.9285 44.3978 9.98207 44.6169 10.0892C44.8359 10.1964 45.0169 10.3321 45.1597 10.4964C45.3026 10.6606 45.4073 10.8416 45.474 11.0392C45.5407 11.2368 45.574 11.4285 45.574 11.6142V12.0928H42.974C42.9788 12.1975 43.0038 12.294 43.049 12.3821C43.0942 12.4702 43.1562 12.5464 43.2347 12.6106C43.3133 12.6749 43.4038 12.7249 43.5062 12.7606C43.6085 12.7964 43.7169 12.8142 43.8312 12.8142C44.055 12.8142 44.2264 12.7749 44.3454 12.6964C44.4645 12.6178 44.5502 12.5237 44.6026 12.4142L45.374 12.8428C45.3312 12.9333 45.2716 13.0273 45.1954 13.1249C45.1192 13.2225 45.0204 13.3118 44.899 13.3928C44.7776 13.4737 44.63 13.5404 44.4562 13.5928ZM44.6597 11.3214H42.9883C43.0312 11.169 43.124 11.0345 43.2669 10.9178C43.4097 10.8011 43.5954 10.7428 43.824 10.7428C44.0526 10.7428 44.2419 10.7975 44.3919 10.9071C44.5419 11.0166 44.6312 11.1547 44.6597 11.3214ZM49.2337 12.7142V13.5714H47.7337C47.5718 13.5714 47.4397 13.519 47.3373 13.4142C47.2349 13.3095 47.1837 13.1761 47.1837 13.0142V10.8856H46.1337V10.0285H47.1837V8.57136H48.0837V10.0285H49.3623V10.8856H48.0837V12.4999C48.0837 12.6428 48.148 12.7142 48.2766 12.7142H49.2337ZM57.5317 12.7142V13.5714H54.4031V12.7142H55.6031V10.8856H54.4888V10.0285H56.5031V12.7142H57.5317ZM61.3914 13.5714V12.7142H60.4342C60.3056 12.7142 60.2414 12.6428 60.2414 12.4999V10.8856H61.5199V10.0285H60.2414V8.57136H59.3414V10.0285H58.2914V10.8856H59.3414V13.0142C59.3414 13.1761 59.3925 13.3095 59.4949 13.4142C59.5973 13.519 59.7295 13.5714 59.8914 13.5714H61.3914ZM68.8215 13.5499C68.6 13.6309 68.3679 13.6714 68.125 13.6714C67.8822 13.6714 67.65 13.6309 67.4286 13.5499C67.2072 13.469 67.0107 13.3511 66.8393 13.1964C66.6679 13.0416 66.5322 12.8511 66.4322 12.6249C66.3322 12.3987 66.2822 12.138 66.2822 11.8428V11.7571C66.2822 11.4666 66.3322 11.2083 66.4322 10.9821C66.5322 10.7559 66.6679 10.5642 66.8393 10.4071C67.0107 10.2499 67.2072 10.1309 67.4286 10.0499C67.65 9.96897 67.8822 9.9285 68.125 9.9285C68.3679 9.9285 68.6 9.96897 68.8215 10.0499C69.0429 10.1309 69.2393 10.2499 69.4107 10.4071C69.5822 10.5642 69.7179 10.7559 69.8179 10.9821C69.9179 11.2083 69.9679 11.4666 69.9679 11.7571V11.8428C69.9679 12.138 69.9179 12.3987 69.8179 12.6249C69.7179 12.8511 69.5822 13.0416 69.4107 13.1964C69.2393 13.3511 69.0429 13.469 68.8215 13.5499ZM68.125 12.8142C67.9965 12.8142 67.875 12.7928 67.7607 12.7499C67.6465 12.7071 67.5465 12.6452 67.4607 12.5642C67.375 12.4833 67.3072 12.3845 67.2572 12.2678C67.2072 12.1511 67.1822 12.019 67.1822 11.8714V11.7285C67.1822 11.5809 67.2072 11.4487 67.2572 11.3321C67.3072 11.2154 67.375 11.1166 67.4607 11.0356C67.5465 10.9547 67.6465 10.8928 67.7607 10.8499C67.875 10.8071 67.9965 10.7856 68.125 10.7856C68.2536 10.7856 68.375 10.8071 68.4893 10.8499C68.6036 10.8928 68.7036 10.9547 68.7893 11.0356C68.875 11.1166 68.9429 11.2154 68.9929 11.3321C69.0429 11.4487 69.0679 11.5809 69.0679 11.7285V11.8714C69.0679 12.019 69.0429 12.1511 68.9929 12.2678C68.9429 12.3845 68.875 12.4833 68.7893 12.5642C68.7036 12.6452 68.6036 12.7071 68.4893 12.7499C68.375 12.7928 68.2536 12.8142 68.125 12.8142ZM71.449 11.7285V13.5714H70.549V10.0285H71.449V10.5571H71.5776C71.6585 10.3571 71.7895 10.2023 71.9704 10.0928C72.1514 9.98326 72.3633 9.9285 72.6062 9.9285C72.7776 9.9285 72.9383 9.95588 73.0883 10.0106C73.2383 10.0654 73.3704 10.1499 73.4847 10.2642C73.599 10.3785 73.6883 10.5237 73.7526 10.6999C73.8169 10.8761 73.849 11.0856 73.849 11.3285V13.5714H72.949V11.5571C72.949 11.3047 72.8883 11.1059 72.7669 10.9606C72.6454 10.8154 72.4704 10.7428 72.2419 10.7428C71.9752 10.7428 71.7764 10.8321 71.6454 11.0106C71.5145 11.1892 71.449 11.4285 71.449 11.7285Z" fill="#495567"/>
<path fill-rule="evenodd" clip-rule="evenodd" d="M12.823 10.1694C13.3407 9.91976 13.9343 9.94657 14.4324 10.2464L24.3408 16.0164L21.5028 18.8677L12.823 10.1694ZM11.8571 11.7296C11.8571 11.4641 11.9161 11.2062 12.0256 10.9744L20.7035 19.6708L12.0271 28.3884C11.9164 28.1614 11.8571 27.9073 11.8571 27.6407V11.7296ZM21.504 20.4728L12.8382 29.1798C13.0681 29.2863 13.3128 29.3327 13.5571 29.3327C13.8588 29.3327 14.1598 29.2606 14.4324 29.0967L24.3428 23.318L21.504 20.4728ZM28.104 18.2076C28.1074 18.2095 28.1112 18.2118 28.1146 18.214C28.6262 18.5244 28.9317 19.0674 28.9317 19.6663C28.9317 20.2651 28.6262 20.8081 28.1146 21.1189L25.3547 22.7278L22.303 19.6697L25.3528 16.6055L28.104 18.2076Z" fill="#495567"/>
</svg>
