<svg width="114" height="40" viewBox="0 0 114 40" fill="none" xmlns="http://www.w3.org/2000/svg">
<rect width="113.571" height="40" rx="4" fill="#E5ECF4"/>
<path fill-rule="evenodd" clip-rule="evenodd" d="M67.4867 30.7C67.0391 30.8429 66.5344 30.9143 65.9725 30.9143C65.3153 30.9143 64.7367 30.8214 64.2367 30.6357C63.7367 30.45 63.3201 30.1929 62.9867 29.8643C62.6534 29.5357 62.401 29.15 62.2296 28.7071C62.0582 28.2643 61.9725 27.7809 61.9725 27.2571V26.8286H63.8582V27.1714C63.8582 27.7714 64.032 28.25 64.3796 28.6071C64.7272 28.9643 65.2677 29.1429 66.001 29.1429C66.5725 29.1429 66.9963 29.019 67.2725 28.7714C67.5486 28.5238 67.6867 28.2286 67.6867 27.8857C67.6867 27.7238 67.6582 27.569 67.601 27.4214C67.5439 27.2738 67.4439 27.1405 67.301 27.0214C67.1582 26.9024 66.9629 26.7952 66.7153 26.7C66.4677 26.6048 66.1534 26.5238 65.7725 26.4571C65.2677 26.3714 64.8058 26.2595 64.3867 26.1214C63.9677 25.9833 63.6034 25.8 63.2939 25.5714C62.9844 25.3429 62.7439 25.0571 62.5725 24.7143C62.401 24.3714 62.3153 23.9524 62.3153 23.4571V23.3714C62.3153 22.9619 62.3986 22.5833 62.5653 22.2357C62.732 21.8881 62.9653 21.5857 63.2653 21.3286C63.5653 21.0714 63.9272 20.8714 64.351 20.7286C64.7748 20.5857 65.2486 20.5143 65.7725 20.5143C66.3629 20.5143 66.8867 20.5976 67.3439 20.7643C67.801 20.9309 68.1844 21.1571 68.4939 21.4429C68.8034 21.7286 69.0367 22.0571 69.1939 22.4286C69.351 22.8 69.4296 23.1905 69.4296 23.6V24.1143H67.5439V23.7714C67.5439 23.3714 67.3891 23.0238 67.0796 22.7286C66.7701 22.4333 66.3344 22.2857 65.7725 22.2857C65.2963 22.2857 64.9201 22.3833 64.6439 22.5786C64.3677 22.7738 64.2296 23.0381 64.2296 23.3714C64.2296 23.5429 64.2629 23.6976 64.3296 23.8357C64.3963 23.9738 64.5129 24.0976 64.6796 24.2071C64.8463 24.3167 65.0653 24.4143 65.3367 24.5C65.6082 24.5857 65.9534 24.6667 66.3725 24.7429C67.4201 24.9333 68.2201 25.2524 68.7725 25.7C69.3248 26.1476 69.601 26.8095 69.601 27.6857V27.8571C69.601 28.3238 69.5177 28.7452 69.351 29.1214C69.1844 29.4976 68.9439 29.819 68.6296 30.0857C68.3153 30.3524 67.9344 30.5571 67.4867 30.7ZM39.3286 30.7143L39.8143 28.5714H43.2143L43.7 30.7143H45.6714L43.2857 20.7143H39.7429L37.3571 30.7143H39.3286ZM42.8 26.7714H40.2143L41.3857 21.6571H41.6429L42.8 26.7714ZM47.7908 29.6857V33.5714H45.9908V23.6286H47.7908V24.6571H48.048C48.2384 24.2667 48.5146 23.9643 48.8765 23.75C49.2384 23.5357 49.7003 23.4286 50.2622 23.4286C50.6813 23.4286 51.0789 23.5095 51.4551 23.6714C51.8313 23.8333 52.1599 24.069 52.4408 24.3786C52.7218 24.6881 52.9456 25.0667 53.1122 25.5143C53.2789 25.9619 53.3622 26.4714 53.3622 27.0429V27.3C53.3622 27.8809 53.2813 28.3952 53.1194 28.8429C52.9575 29.2905 52.7384 29.669 52.4622 29.9786C52.1861 30.2881 51.8599 30.5214 51.4837 30.6786C51.1075 30.8357 50.7003 30.9143 50.2622 30.9143C49.9384 30.9143 49.6575 30.8809 49.4194 30.8143C49.1813 30.7476 48.9742 30.6571 48.798 30.5429C48.6218 30.4286 48.4742 30.2976 48.3551 30.15C48.2361 30.0024 48.1337 29.8476 48.048 29.6857H47.7908ZM49.6765 29.2C49.1146 29.2 48.6599 29.0214 48.3123 28.6643C47.9646 28.3071 47.7908 27.8381 47.7908 27.2571V27.0857C47.7908 26.5048 47.9646 26.0357 48.3123 25.6786C48.6599 25.3214 49.1146 25.1429 49.6765 25.1429C50.2384 25.1429 50.6932 25.3167 51.0408 25.6643C51.3884 26.0119 51.5623 26.4857 51.5623 27.0857V27.2571C51.5623 27.8571 51.3884 28.3309 51.0408 28.6786C50.6932 29.0262 50.2384 29.2 49.6765 29.2ZM55.8959 29.6857V33.5714H54.0959V23.6286H55.8959V24.6571H56.1531C56.3435 24.2667 56.6197 23.9643 56.9816 23.75C57.3435 23.5357 57.8054 23.4286 58.3674 23.4286C58.7864 23.4286 59.184 23.5095 59.5602 23.6714C59.9364 23.8333 60.265 24.069 60.5459 24.3786C60.8269 24.6881 61.0507 25.0667 61.2174 25.5143C61.384 25.9619 61.4674 26.4714 61.4674 27.0429V27.3C61.4674 27.8809 61.3864 28.3952 61.2245 28.8429C61.0626 29.2905 60.8435 29.669 60.5674 29.9786C60.2912 30.2881 59.965 30.5214 59.5888 30.6786C59.2126 30.8357 58.8054 30.9143 58.3674 30.9143C58.0435 30.9143 57.7626 30.8809 57.5245 30.8143C57.2864 30.7476 57.0793 30.6571 56.9031 30.5429C56.7269 30.4286 56.5793 30.2976 56.4602 30.15C56.3412 30.0024 56.2388 29.8476 56.1531 29.6857H55.8959ZM57.7816 29.2C57.2197 29.2 56.765 29.0214 56.4174 28.6643C56.0697 28.3071 55.8959 27.8381 55.8959 27.2571V27.0857C55.8959 26.5048 56.0697 26.0357 56.4174 25.6786C56.765 25.3214 57.2197 25.1429 57.7816 25.1429C58.3435 25.1429 58.7983 25.3167 59.1459 25.6643C59.4935 26.0119 59.6674 26.4857 59.6674 27.0857V27.2571C59.6674 27.8571 59.4935 28.3309 59.1459 28.6786C58.7983 29.0262 58.3435 29.2 57.7816 29.2ZM76.6776 30.7143V29H74.7633C74.5061 29 74.3776 28.8571 74.3776 28.5714V25.3429H76.9347V23.6286H74.3776V20.7143H72.5776V23.6286H70.4776V25.3429H72.5776V29.6C72.5776 29.9238 72.6799 30.1905 72.8847 30.4C73.0895 30.6095 73.3537 30.7143 73.6776 30.7143H76.6776ZM83.4327 30.6714C82.9898 30.8333 82.5255 30.9143 82.0398 30.9143C81.5541 30.9143 81.0898 30.8333 80.6469 30.6714C80.2041 30.5095 79.8112 30.2738 79.4684 29.9643C79.1255 29.6548 78.8541 29.2738 78.6541 28.8214C78.4541 28.369 78.3541 27.8476 78.3541 27.2571V27.0857C78.3541 26.5048 78.4541 25.9881 78.6541 25.5357C78.8541 25.0833 79.1255 24.7 79.4684 24.3857C79.8112 24.0714 80.2041 23.8333 80.6469 23.6714C81.0898 23.5095 81.5541 23.4286 82.0398 23.4286C82.5255 23.4286 82.9898 23.5095 83.4327 23.6714C83.8755 23.8333 84.2684 24.0714 84.6112 24.3857C84.9541 24.7 85.2255 25.0833 85.4255 25.5357C85.6255 25.9881 85.7255 26.5048 85.7255 27.0857V27.2571C85.7255 27.8476 85.6255 28.369 85.4255 28.8214C85.2255 29.2738 84.9541 29.6548 84.6112 29.9643C84.2684 30.2738 83.8755 30.5095 83.4327 30.6714ZM82.0398 29.2C81.7827 29.2 81.5398 29.1571 81.3112 29.0714C81.0827 28.9857 80.8827 28.8619 80.7112 28.7C80.5398 28.5381 80.4041 28.3405 80.3041 28.1071C80.2041 27.8738 80.1541 27.6095 80.1541 27.3143V27.0286C80.1541 26.7333 80.2041 26.469 80.3041 26.2357C80.4041 26.0024 80.5398 25.8048 80.7112 25.6429C80.8827 25.4809 81.0827 25.3571 81.3112 25.2714C81.5398 25.1857 81.7827 25.1429 82.0398 25.1429C82.2969 25.1429 82.5398 25.1857 82.7684 25.2714C82.9969 25.3571 83.1969 25.4809 83.3684 25.6429C83.5398 25.8048 83.6755 26.0024 83.7755 26.2357C83.8755 26.469 83.9255 26.7333 83.9255 27.0286V27.3143C83.9255 27.6095 83.8755 27.8738 83.7755 28.1071C83.6755 28.3405 83.5398 28.5381 83.3684 28.7C83.1969 28.8619 82.9969 28.9857 82.7684 29.0714C82.5398 29.1571 82.2969 29.2 82.0398 29.2ZM91.2592 29V30.7143H86.3735V29H87.8306V25.3429H86.5449V23.6286H89.5449V24.6571H89.802C89.9354 24.2667 90.1616 23.9643 90.4806 23.75C90.7997 23.5357 91.183 23.4286 91.6306 23.4286C92.3354 23.4286 92.902 23.65 93.3306 24.0929C93.7592 24.5357 93.9735 25.2095 93.9735 26.1143V26.4286L92.1163 26.6V26.4C92.1163 26.0095 92.0163 25.6976 91.8163 25.4643C91.6163 25.2309 91.3163 25.1143 90.9163 25.1143C90.5163 25.1143 90.202 25.2524 89.9735 25.5286C89.7449 25.8048 89.6306 26.2 89.6306 26.7143V29H91.2592ZM98.3214 30.9143C98.7881 30.9143 99.1952 30.8619 99.5429 30.7571C99.8905 30.6524 100.186 30.519 100.429 30.3571C100.671 30.1952 100.869 30.0167 101.021 29.8214C101.174 29.6262 101.293 29.4381 101.379 29.2571L99.8357 28.4C99.731 28.619 99.5595 28.8071 99.3214 28.9643C99.0833 29.1214 98.7405 29.2 98.2929 29.2C98.0643 29.2 97.8476 29.1643 97.6429 29.0929C97.4381 29.0214 97.2571 28.9214 97.1 28.7929C96.9429 28.6643 96.819 28.5119 96.7286 28.3357C96.6381 28.1595 96.5881 27.9667 96.5786 27.7571H101.779V26.8C101.779 26.4286 101.712 26.0452 101.579 25.65C101.445 25.2548 101.236 24.8929 100.95 24.5643C100.664 24.2357 100.302 23.9643 99.8643 23.75C99.4262 23.5357 98.9024 23.4286 98.2929 23.4286C97.7976 23.4286 97.3333 23.5167 96.9 23.6929C96.4667 23.869 96.0881 24.1143 95.7643 24.4286C95.4405 24.7429 95.1857 25.1238 95 25.5714C94.8143 26.019 94.7214 26.5143 94.7214 27.0571V27.1429C94.7214 27.7333 94.8095 28.2619 94.9857 28.7286C95.1619 29.1952 95.4095 29.5905 95.7286 29.9143C96.0476 30.2381 96.4262 30.4857 96.8643 30.6571C97.3024 30.8286 97.7881 30.9143 98.3214 30.9143ZM96.6071 26.2143H99.95C99.8929 25.8809 99.7143 25.6048 99.4143 25.3857C99.1143 25.1667 98.7357 25.0571 98.2786 25.0571C97.8214 25.0571 97.45 25.1738 97.1643 25.4071C96.8786 25.6405 96.6929 25.9095 96.6071 26.2143Z" fill="#495567"/>
<path fill-rule="evenodd" clip-rule="evenodd" d="M51.8255 9.6035C51.7422 9.63921 51.6553 9.65707 51.5648 9.65707C51.4696 9.65707 51.3815 9.63921 51.3005 9.6035C51.2196 9.56778 51.1481 9.52016 51.0862 9.46064C51.0243 9.40112 50.9755 9.32969 50.9398 9.24636C50.9041 9.16302 50.8862 9.07374 50.8862 8.9785C50.8862 8.88326 50.9041 8.79397 50.9398 8.71064C50.9755 8.62731 51.0243 8.55588 51.0862 8.49636C51.1481 8.43683 51.2196 8.38921 51.3005 8.3535C51.3815 8.31778 51.4696 8.29993 51.5648 8.29993C51.6553 8.29993 51.7422 8.31778 51.8255 8.3535C51.9088 8.38921 51.9815 8.43683 52.0434 8.49636C52.1053 8.55588 52.1541 8.62731 52.1898 8.71064C52.2255 8.79397 52.2434 8.88326 52.2434 8.9785C52.2434 9.07374 52.2255 9.16302 52.1898 9.24636C52.1541 9.32969 52.1053 9.40112 52.0434 9.46064C51.9815 9.52016 51.9088 9.56778 51.8255 9.6035ZM38.4786 12.4999L38.2357 13.5714H37.25L38.4429 8.57136H40.2143L41.4071 13.5714H40.4214L40.1786 12.4999H38.4786ZM38.6786 11.5999H39.9714L39.3929 9.04278H39.2643L38.6786 11.5999ZM44.2311 13.5714L45.2454 10.0285H44.274L43.4383 13.1428H43.3097L42.474 10.0285H41.5026L42.5168 13.5714H44.2311ZM47.698 13.5321C47.5265 13.6249 47.3265 13.6714 47.098 13.6714C46.8837 13.6714 46.6825 13.6309 46.4944 13.5499C46.3063 13.469 46.1408 13.3499 45.998 13.1928C45.8551 13.0356 45.742 12.8452 45.6587 12.6214C45.5753 12.3975 45.5337 12.1428 45.5337 11.8571V11.7428C45.5337 11.4618 45.5741 11.2095 45.6551 10.9856C45.7361 10.7618 45.8456 10.5714 45.9837 10.4142C46.1218 10.2571 46.2825 10.1368 46.4658 10.0535C46.6491 9.97016 46.8456 9.9285 47.0551 9.9285C47.3075 9.9285 47.5111 9.97136 47.6658 10.0571C47.8206 10.1428 47.9432 10.2761 48.0337 10.4571H48.1622V10.0285H49.0622V12.4999C49.0622 12.6428 49.1265 12.7142 49.2551 12.7142H49.3908V13.5714H48.7765C48.6146 13.5714 48.4825 13.5237 48.3801 13.4285C48.2777 13.3333 48.2265 13.2095 48.2265 13.0571H48.098C48.0027 13.2809 47.8694 13.4392 47.698 13.5321ZM47.298 12.8142C47.0361 12.8142 46.8265 12.7273 46.6694 12.5535C46.5122 12.3797 46.4337 12.1428 46.4337 11.8428V11.7571C46.4337 11.4571 46.5122 11.2202 46.6694 11.0464C46.8265 10.8725 47.0361 10.7856 47.298 10.7856C47.5599 10.7856 47.7694 10.8725 47.9265 11.0464C48.0837 11.2202 48.1622 11.4571 48.1622 11.7571V11.8428C48.1622 12.1428 48.0837 12.3797 47.9265 12.5535C47.7694 12.7273 47.5599 12.8142 47.298 12.8142ZM53.0505 12.7142H52.0219V10.0285H50.0077V10.8856H51.1219V12.7142H49.9219V13.5714H53.0505V12.7142ZM56.0316 12.7142H57.1888V13.5714H53.8888V12.7142H55.1316V9.4285H53.9316V8.57136H56.0316V12.7142ZM59.2556 13.6714C59.4842 13.6714 59.6842 13.6249 59.8556 13.5321C60.027 13.4392 60.1604 13.2809 60.2556 13.0571H60.3842C60.3842 13.2095 60.4354 13.3333 60.5378 13.4285C60.6401 13.5237 60.7723 13.5714 60.9342 13.5714H61.5485V12.7142H61.4128C61.2842 12.7142 61.2199 12.6428 61.2199 12.4999V10.0285H60.3199V10.4571H60.1913C60.1008 10.2761 59.9782 10.1428 59.8235 10.0571C59.6687 9.97136 59.4651 9.9285 59.2128 9.9285C59.0032 9.9285 58.8068 9.97016 58.6235 10.0535C58.4401 10.1368 58.2794 10.2571 58.1413 10.4142C58.0032 10.5714 57.8937 10.7618 57.8128 10.9856C57.7318 11.2095 57.6913 11.4618 57.6913 11.7428V11.8571C57.6913 12.1428 57.733 12.3975 57.8163 12.6214C57.8997 12.8452 58.0128 13.0356 58.1556 13.1928C58.2985 13.3499 58.4639 13.469 58.652 13.5499C58.8401 13.6309 59.0413 13.6714 59.2556 13.6714ZM58.827 12.5535C58.9842 12.7273 59.1937 12.8142 59.4556 12.8142C59.7175 12.8142 59.927 12.7273 60.0842 12.5535C60.2413 12.3797 60.3199 12.1428 60.3199 11.8428V11.7571C60.3199 11.4571 60.2413 11.2202 60.0842 11.0464C59.927 10.8725 59.7175 10.7856 59.4556 10.7856C59.1937 10.7856 58.9842 10.8725 58.827 11.0464C58.6699 11.2202 58.5913 11.4571 58.5913 11.7571V11.8428C58.5913 12.1428 58.6699 12.3797 58.827 12.5535ZM64.001 13.6714C64.2201 13.6714 64.4236 13.6321 64.6117 13.5535C64.7998 13.4749 64.9629 13.3583 65.101 13.2035C65.2391 13.0487 65.3486 12.8595 65.4296 12.6356C65.5105 12.4118 65.551 12.1547 65.551 11.8642V11.7356C65.551 11.4499 65.5094 11.1952 65.426 10.9714C65.3427 10.7475 65.2308 10.5583 65.0903 10.4035C64.9498 10.2487 64.7855 10.1309 64.5975 10.0499C64.4094 9.96897 64.2105 9.9285 64.001 9.9285C63.7201 9.9285 63.4891 9.98207 63.3082 10.0892C63.1272 10.1964 62.9891 10.3475 62.8939 10.5428H62.7653V8.57136H61.8653V13.5714H62.7653V13.0571H62.8939C62.9367 13.138 62.9879 13.2154 63.0474 13.2892C63.107 13.363 63.1808 13.4285 63.2689 13.4856C63.357 13.5428 63.4605 13.588 63.5796 13.6214C63.6986 13.6547 63.8391 13.6714 64.001 13.6714ZM63.026 12.5464C63.1998 12.7249 63.4272 12.8142 63.7082 12.8142C63.9891 12.8142 64.2165 12.7273 64.3903 12.5535C64.5641 12.3797 64.651 12.1428 64.651 11.8428V11.7571C64.651 11.4571 64.5641 11.2202 64.3903 11.0464C64.2165 10.8725 63.9891 10.7856 63.7082 10.7856C63.4272 10.7856 63.1998 10.8749 63.026 11.0535C62.8522 11.2321 62.7653 11.4666 62.7653 11.7571V11.8428C62.7653 12.1333 62.8522 12.3678 63.026 12.5464ZM69.3464 12.7142H68.1893V8.57136H66.0893V9.4285H67.2893V12.7142H66.0464V13.5714H69.3464V12.7142ZM72.3954 13.5928C72.2216 13.6452 72.018 13.6714 71.7847 13.6714C71.518 13.6714 71.2752 13.6285 71.0561 13.5428C70.8371 13.4571 70.6478 13.3333 70.4883 13.1714C70.3287 13.0095 70.2049 12.8118 70.1168 12.5785C70.0287 12.3452 69.9847 12.0809 69.9847 11.7856V11.7428C69.9847 11.4714 70.0311 11.2237 70.124 10.9999C70.2168 10.7761 70.3442 10.5856 70.5061 10.4285C70.668 10.2714 70.8573 10.1487 71.074 10.0606C71.2906 9.97255 71.5228 9.9285 71.7704 9.9285C72.0752 9.9285 72.3371 9.98207 72.5561 10.0892C72.7752 10.1964 72.9561 10.3321 73.099 10.4964C73.2418 10.6606 73.3466 10.8416 73.4133 11.0392C73.4799 11.2368 73.5133 11.4285 73.5133 11.6142V12.0928H70.9133C70.918 12.1975 70.943 12.294 70.9883 12.3821C71.0335 12.4702 71.0954 12.5464 71.174 12.6106C71.2526 12.6749 71.343 12.7249 71.4454 12.7606C71.5478 12.7964 71.6561 12.8142 71.7704 12.8142C71.9942 12.8142 72.1656 12.7749 72.2847 12.6964C72.4037 12.6178 72.4895 12.5237 72.5418 12.4142L73.3133 12.8428C73.2704 12.9333 73.2109 13.0273 73.1347 13.1249C73.0585 13.2225 72.9597 13.3118 72.8383 13.3928C72.7168 13.4737 72.5692 13.5404 72.3954 13.5928ZM72.599 11.3214H70.9276C70.9704 11.169 71.0633 11.0345 71.2061 10.9178C71.349 10.8011 71.5347 10.7428 71.7633 10.7428C71.9918 10.7428 72.1811 10.7975 72.3311 10.9071C72.4811 11.0166 72.5704 11.1547 72.599 11.3214ZM80.5505 13.5499C80.3291 13.6309 80.0969 13.6714 79.8541 13.6714C79.6112 13.6714 79.3791 13.6309 79.1576 13.5499C78.9362 13.469 78.7398 13.3511 78.5684 13.1964C78.3969 13.0416 78.2612 12.8511 78.1612 12.6249C78.0612 12.3987 78.0112 12.138 78.0112 11.8428V11.7571C78.0112 11.4666 78.0612 11.2083 78.1612 10.9821C78.2612 10.7559 78.3969 10.5642 78.5684 10.4071C78.7398 10.2499 78.9362 10.1309 79.1576 10.0499C79.3791 9.96897 79.6112 9.9285 79.8541 9.9285C80.0969 9.9285 80.3291 9.96897 80.5505 10.0499C80.7719 10.1309 80.9684 10.2499 81.1398 10.4071C81.3112 10.5642 81.4469 10.7559 81.5469 10.9821C81.6469 11.2083 81.6969 11.4666 81.6969 11.7571V11.8428C81.6969 12.138 81.6469 12.3987 81.5469 12.6249C81.4469 12.8511 81.3112 13.0416 81.1398 13.1964C80.9684 13.3511 80.7719 13.469 80.5505 13.5499ZM79.8541 12.8142C79.7255 12.8142 79.6041 12.7928 79.4898 12.7499C79.3755 12.7071 79.2755 12.6452 79.1898 12.5642C79.1041 12.4833 79.0362 12.3845 78.9862 12.2678C78.9362 12.1511 78.9112 12.019 78.9112 11.8714V11.7285C78.9112 11.5809 78.9362 11.4487 78.9862 11.3321C79.0362 11.2154 79.1041 11.1166 79.1898 11.0356C79.2755 10.9547 79.3755 10.8928 79.4898 10.8499C79.6041 10.8071 79.7255 10.7856 79.8541 10.7856C79.9827 10.7856 80.1041 10.8071 80.2184 10.8499C80.3327 10.8928 80.4327 10.9547 80.5184 11.0356C80.6041 11.1166 80.6719 11.2154 80.7219 11.3321C80.7719 11.4487 80.7969 11.5809 80.7969 11.7285V11.8714C80.7969 12.019 80.7719 12.1511 80.7219 12.2678C80.6719 12.3845 80.6041 12.4833 80.5184 12.5642C80.4327 12.6452 80.3327 12.7071 80.2184 12.7499C80.1041 12.7928 79.9827 12.8142 79.8541 12.8142ZM83.1781 11.7285V13.5714H82.2781V10.0285H83.1781V10.5571H83.3066C83.3876 10.3571 83.5185 10.2023 83.6995 10.0928C83.8804 9.98326 84.0923 9.9285 84.3352 9.9285C84.5066 9.9285 84.6673 9.95588 84.8173 10.0106C84.9673 10.0654 85.0995 10.1499 85.2138 10.2642C85.3281 10.3785 85.4173 10.5237 85.4816 10.6999C85.5459 10.8761 85.5781 11.0856 85.5781 11.3285V13.5714H84.6781V11.5571C84.6781 11.3047 84.6173 11.1059 84.4959 10.9606C84.3745 10.8154 84.1995 10.7428 83.9709 10.7428C83.7043 10.7428 83.5054 10.8321 83.3745 11.0106C83.2435 11.1892 83.1781 11.4285 83.1781 11.7285ZM93.3832 12.7142H92.426C92.2975 12.7142 92.2332 12.6428 92.2332 12.4999V10.8856H93.5117V10.0285H92.2332V8.57136H91.3332V10.0285H90.2832V10.8856H91.3332V13.0142C91.3332 13.1761 91.3844 13.3095 91.4867 13.4142C91.5891 13.519 91.7213 13.5714 91.8832 13.5714H93.3832V12.7142ZM95.35 11.7285V13.5714H94.45V8.57136H95.35V10.5999H95.4786C95.569 10.3856 95.7024 10.2202 95.8786 10.1035C96.0548 9.98683 96.2714 9.9285 96.5286 9.9285C96.7048 9.9285 96.8667 9.95707 97.0143 10.0142C97.1619 10.0714 97.2905 10.1571 97.4 10.2714C97.5095 10.3856 97.5952 10.5321 97.6571 10.7106C97.719 10.8892 97.75 11.0999 97.75 11.3428V13.5714H96.85V11.5571C96.85 11.3047 96.7893 11.1059 96.6679 10.9606C96.5464 10.8154 96.3714 10.7428 96.1429 10.7428C95.8762 10.7428 95.6774 10.8321 95.5464 11.0106C95.4155 11.1892 95.35 11.4285 95.35 11.7285ZM100.153 13.6714C100.386 13.6714 100.589 13.6452 100.763 13.5928C100.937 13.5404 101.085 13.4737 101.206 13.3928C101.328 13.3118 101.426 13.2225 101.503 13.1249C101.579 13.0273 101.638 12.9333 101.681 12.8428L100.91 12.4142C100.857 12.5237 100.772 12.6178 100.653 12.6964C100.534 12.7749 100.362 12.8142 100.138 12.8142C100.024 12.8142 99.9156 12.7964 99.8133 12.7606C99.7109 12.7249 99.6204 12.6749 99.5418 12.6106C99.4633 12.5464 99.4014 12.4702 99.3561 12.3821C99.3109 12.294 99.2859 12.1975 99.2811 12.0928H101.881V11.6142C101.881 11.4285 101.848 11.2368 101.781 11.0392C101.714 10.8416 101.61 10.6606 101.467 10.4964C101.324 10.3321 101.143 10.1964 100.924 10.0892C100.705 9.98207 100.443 9.9285 100.138 9.9285C99.8906 9.9285 99.6585 9.97255 99.4418 10.0606C99.2252 10.1487 99.0359 10.2714 98.874 10.4285C98.7121 10.5856 98.5847 10.7761 98.4918 10.9999C98.399 11.2237 98.3526 11.4714 98.3526 11.7428V11.7856C98.3526 12.0809 98.3966 12.3452 98.4847 12.5785C98.5728 12.8118 98.6966 13.0095 98.8561 13.1714C99.0156 13.3333 99.2049 13.4571 99.424 13.5428C99.643 13.6285 99.8859 13.6714 100.153 13.6714ZM99.2954 11.3214H100.967C100.938 11.1547 100.849 11.0166 100.699 10.9071C100.549 10.7975 100.36 10.7428 100.131 10.7428C99.9025 10.7428 99.7168 10.8011 99.574 10.9178C99.4311 11.0345 99.3383 11.169 99.2954 11.3214Z" fill="#495567"/>
<path fill-rule="evenodd" clip-rule="evenodd" d="M21.1072 11.5947C21.8127 10.7331 23.0235 10.0715 24.0593 10C24.233 11.1779 23.7533 12.3315 23.1194 13.147C22.4418 14.0231 21.2723 14.7005 20.1405 14.6654C19.9341 13.5372 20.4636 12.3763 21.1072 11.5947ZM24.2975 14.6667C25.6761 14.6667 27.1359 15.4124 28.1747 16.6973C24.7693 18.5503 25.321 23.3774 28.7619 24.6698C28.2888 25.7108 28.0618 26.175 27.4517 27.0971C26.6007 28.3833 25.4022 29.9861 23.9145 29.9974C23.3029 30.0037 22.9017 29.8211 22.4691 29.6243C21.9677 29.3961 21.4242 29.1487 20.4622 29.1541C19.5054 29.1587 18.9532 29.4031 18.4449 29.6279C18.0012 29.8242 17.591 30.0057 16.9743 29.9999C15.4879 29.9874 14.3515 28.541 13.5005 27.2548C11.1224 23.6601 10.8713 19.4399 12.3387 17.1953C13.3825 15.6013 15.0288 14.6692 16.5748 14.6692C17.3988 14.6692 18.0629 14.9041 18.6958 15.1279C19.2718 15.3316 19.8219 15.5262 20.4431 15.5262C21.018 15.5262 21.4906 15.3486 22.0061 15.1548C22.6246 14.9223 23.3049 14.6667 24.2975 14.6667Z" fill="#495567"/>
</svg>
